
<svg width="1440" height="1024" viewBox="0 0 1440 1024" fill="none" xmlns="http://www.w3.org/2000/svg">
  <g opacity="0.2">
    <path d="M-154 668.5C-88.5 550 199.5 313 558.5 313C917.5 313 1331 423.5 1499 239.5" stroke="url(#paint0_linear)" stroke-width="2"/>
    <path d="M-154 769.5C-88.5 651 199.5 414 558.5 414C917.5 414 1331 524.5 1499 340.5" stroke="url(#paint1_linear)" stroke-width="2"/>
    <path d="M-154 379.5C-88.5 261 199.5 24 558.5 24C917.5 24 1331 134.5 1499 -49.5" stroke="url(#paint2_linear)" stroke-width="2"/>
    <path d="M-154 471.5C-88.5 353 199.5 116 558.5 116C917.5 116 1331 226.5 1499 42.5" stroke="url(#paint3_linear)" stroke-width="2"/>
  </g>
  <defs>
    <linearGradient id="paint0_linear" x1="672.5" y1="239.5" x2="672.5" y2="668.5" gradientUnits="userSpaceOnUse">
      <stop stop-color="#0EA5E9"/>
      <stop offset="0.5" stop-color="#7E22CE"/>
      <stop offset="1" stop-color="#F59E0B"/>
    </linearGradient>
    <linearGradient id="paint1_linear" x1="672.5" y1="340.5" x2="672.5" y2="769.5" gradientUnits="userSpaceOnUse">
      <stop stop-color="#0EA5E9"/>
      <stop offset="0.5" stop-color="#7E22CE"/>
      <stop offset="1" stop-color="#F59E0B"/>
    </linearGradient>
    <linearGradient id="paint2_linear" x1="672.5" y1="-49.5" x2="672.5" y2="379.5" gradientUnits="userSpaceOnUse">
      <stop stop-color="#0EA5E9"/>
      <stop offset="0.5" stop-color="#7E22CE"/>
      <stop offset="1" stop-color="#F59E0B"/>
    </linearGradient>
    <linearGradient id="paint3_linear" x1="672.5" y1="42.5" x2="672.5" y2="471.5" gradientUnits="userSpaceOnUse">
      <stop stop-color="#0EA5E9"/>
      <stop offset="0.5" stop-color="#7E22CE"/>
      <stop offset="1" stop-color="#F59E0B"/>
    </linearGradient>
  </defs>
</svg>
